<?xml version="1.0" encoding="UTF-8" standalone="no"?>
<!DOCTYPE svg PUBLIC "-//W3C//DTD SVG 1.1//EN" "http://www.w3.org/Graphics/SVG/1.1/DTD/svg11.dtd">
<svg width="100%" height="100%" viewBox="0 0 1024 1024" version="1.1" xmlns="http://www.w3.org/2000/svg" xmlns:xlink="http://www.w3.org/1999/xlink" xml:space="preserve" xmlns:serif="http://www.serif.com/" style="fill-rule:evenodd;clip-rule:evenodd;stroke-linejoin:round;stroke-miterlimit:2;">
    <g transform="matrix(1.26841,0,0,1.26841,-325.7,-13.2027)">
        <path d="M747.217,741.073L592.046,741.073L574.392,650.015L464.75,650.015L447.096,741.073L299.358,741.073L405.283,164.06L641.292,164.06L747.217,741.073ZM556.738,541.302L524.217,335.027L517.713,335.027L485.192,541.302L556.738,541.302Z" style="fill-rule:nonzero;"/>
        <rect x="804.825" y="164.06" width="157.958" height="577.013" style="fill-rule:nonzero;"/>
    </g>
    <g transform="matrix(0.964856,-0.984024,0.984024,0.964856,856.187,499.087)">
        <g transform="matrix(1,0,0,1,-256,-256)">
            <clipPath id="_clip1">
                <rect x="0" y="0" width="512" height="512"/>
            </clipPath>
            <g clip-path="url(#_clip1)">
                <g>
                    <g>
                        <g>
                            <path d="M358.752,51.159L70.113,339.798L172.176,441.862L455.088,158.95L512,0.282L358.752,51.159ZM172.176,419.287L92.688,339.798L349.536,82.949L349.605,94.571L372.125,94.482L372.214,117.149L394.839,117.197L394.791,139.888L417.258,139.617L417.528,162.464L429.066,162.396L172.176,419.287ZM442.648,146.351L433.303,146.406L433.033,123.46L410.789,123.729L410.837,101.265L388.116,101.217L388.025,78.453L365.474,78.542L365.406,67.079L367.369,65.116L443.181,39.947L447.942,63.758L470.646,68.299L442.648,146.351ZM461.506,50.195L458.444,34.882L485.901,25.766L476.093,53.112L461.506,50.195Z" style="fill-rule:nonzero;"/>
                            <g transform="matrix(-0.7071,-0.7071,0.7071,-0.7071,-97.0284,763.837)">
                                <rect x="37.686" y="394.032" width="143.992" height="15.962"/>
                            </g>
                            <path d="M10.388,399.522C-3.463,413.374 -3.463,435.913 10.388,449.766L61.934,501.311C68.645,508.022 77.566,511.717 87.056,511.717C96.546,511.717 105.468,508.021 112.178,501.311L149.251,464.238L47.462,362.45L10.388,399.522ZM100.891,490.025C97.196,493.721 92.283,495.756 87.057,495.756C81.831,495.756 76.918,493.72 73.223,490.025L21.676,438.48C14.047,430.852 14.047,418.438 21.676,410.81L47.461,385.025L126.676,464.241L100.891,490.025Z" style="fill-rule:nonzero;"/>
                        </g>
                    </g>
                </g>
            </g>
        </g>
    </g>
</svg>
