<?xml version="1.0" encoding="UTF-8" standalone="no"?>
<!DOCTYPE svg PUBLIC "-//W3C//DTD SVG 1.1//EN" "http://www.w3.org/Graphics/SVG/1.1/DTD/svg11.dtd">
<svg width="100%" height="100%" viewBox="0 0 1024 1024" version="1.1" xmlns="http://www.w3.org/2000/svg" xmlns:xlink="http://www.w3.org/1999/xlink" xml:space="preserve" xmlns:serif="http://www.serif.com/" style="fill-rule:evenodd;clip-rule:evenodd;stroke-linejoin:round;stroke-miterlimit:2;">
    <g transform="matrix(1.65724,0,0,1.65724,510.657,517.023)">
        <g transform="matrix(1,0,0,1,-400,-400)">
            <path d="M116.667,133.333C116.667,124.129 124.129,116.667 133.333,116.667L233.333,116.667C242.538,116.667 250,124.129 250,133.333C250,142.538 242.538,150 233.333,150L150,150L150,233.333C150,242.538 142.538,250 133.333,250C124.129,250 116.667,242.538 116.667,233.333L116.667,133.333Z"/>
            <path d="M666.667,116.667C675.87,116.667 683.333,124.129 683.333,133.333L683.333,233.333C683.333,242.538 675.87,250 666.667,250C657.463,250 650,242.538 650,233.333L650,150L566.667,150C557.463,150 550,142.538 550,133.333C550,124.129 557.463,116.667 566.667,116.667L666.667,116.667Z"/>
            <path d="M133.333,683.333C124.129,683.333 116.667,675.87 116.667,666.667L116.667,566.667C116.667,557.463 124.129,550 133.333,550C142.538,550 150,557.463 150,566.667L150,650L233.333,650C242.538,650 250,657.463 250,666.667C250,675.87 242.538,683.333 233.333,683.333L133.333,683.333Z"/>
            <path d="M683.333,666.667C683.333,675.87 675.87,683.333 666.667,683.333L566.667,683.333C557.463,683.333 550,675.87 550,666.667C550,657.463 557.463,650 566.667,650L650,650L650,566.667C650,557.463 657.463,550 666.667,550C675.87,550 683.333,557.463 683.333,566.667L683.333,666.667Z"/>
        </g>
    </g>
    <g transform="matrix(0.938825,0,0,0.938825,80.4505,15.7553)">
        <path d="M235.552,775.063C219.399,755.183 211.323,737.322 211.323,721.48C211.323,705.638 224.68,684.671 251.394,658.578C266.925,643.668 283.389,636.213 300.784,636.213C318.179,636.213 342.408,651.744 373.471,682.807C382.168,693.368 394.593,703.464 410.746,713.093C426.898,722.723 441.809,727.537 455.476,727.537C513.253,727.537 542.141,703.93 542.141,656.714C542.141,642.425 534.22,630.466 518.378,620.837C502.536,611.207 482.811,604.218 459.204,599.869C435.596,595.521 410.125,588.531 382.789,578.902C355.454,569.273 329.983,557.935 306.375,544.888C282.767,531.842 263.043,511.185 247.201,482.918C231.359,454.651 223.438,420.637 223.438,380.877C223.438,326.207 243.784,278.525 284.476,237.833C325.168,197.141 380.615,176.795 450.817,176.795C488.092,176.795 522.106,181.61 552.858,191.239C583.61,200.868 604.888,210.653 616.692,220.593L639.989,238.299C659.248,256.315 668.877,271.536 668.877,283.961C668.877,296.386 661.422,313.471 646.512,335.215C625.389,366.278 603.646,381.809 581.28,381.809C568.234,381.809 552.081,375.596 532.822,363.171C530.959,361.929 527.386,358.823 522.106,353.852C516.825,348.882 512.01,344.844 507.662,341.738C494.615,333.662 477.997,329.624 457.806,329.624C437.615,329.624 420.841,334.438 407.484,344.068C394.127,353.697 387.449,367.054 387.449,384.139C387.449,401.223 395.37,415.046 411.212,425.607C427.054,436.169 446.779,443.313 470.386,447.041C493.994,450.768 519.776,456.515 547.733,464.281C575.689,472.046 601.471,481.52 625.079,492.703C648.686,503.886 668.411,523.3 684.253,550.946C700.095,578.591 708.016,612.605 708.016,652.987C708.016,693.368 699.94,728.935 683.787,759.687C667.635,790.439 646.512,814.202 620.419,830.976C570.098,863.903 516.359,880.366 459.204,880.366C430.005,880.366 402.359,876.794 376.266,869.649C350.174,862.505 329.051,853.652 312.898,843.091C279.972,823.211 256.985,803.952 243.939,785.314L235.552,775.063Z" style="fill-rule:nonzero;"/>
    </g>
</svg>
