<?xml version="1.0" encoding="UTF-8" standalone="no"?><!DOCTYPE svg PUBLIC "-//W3C//DTD SVG 1.1//EN" "http://www.w3.org/Graphics/SVG/1.1/DTD/svg11.dtd"><svg width="100%" height="100%" viewBox="0 0 1024 1024" version="1.1" xmlns="http://www.w3.org/2000/svg" xmlns:xlink="http://www.w3.org/1999/xlink" xml:space="preserve" xmlns:serif="http://www.serif.com/" style="fill-rule:evenodd;clip-rule:evenodd;stroke-linejoin:round;stroke-miterlimit:2;"><g><g><path d="M41.106,75.092c0,-15.253 12.367,-27.62 27.62,-27.62l165.724,0c15.255,0 27.621,12.367 27.621,27.62c-0,15.255 -12.366,27.621 -27.621,27.621l-138.103,-0l-0,138.103c-0,15.255 -12.366,27.621 -27.621,27.621c-15.253,-0 -27.62,-12.366 -27.62,-27.621l0,-165.724Z"/><path d="M952.588,47.472c15.252,0 27.62,12.367 27.62,27.62l-0,165.724c-0,15.255 -12.368,27.621 -27.62,27.621c-15.253,0 -27.621,-12.366 -27.621,-27.621l0,-138.103l-138.103,0c-15.253,0 -27.621,-12.366 -27.621,-27.621c-0,-15.253 12.368,-27.62 27.621,-27.62l165.724,0Z"/><path d="M68.726,986.574c-15.253,-0 -27.62,-12.368 -27.62,-27.62l0,-165.724c0,-15.253 12.367,-27.621 27.62,-27.621c15.255,-0 27.621,12.368 27.621,27.621l-0,138.103l138.103,0c15.255,0 27.621,12.368 27.621,27.621c-0,15.252 -12.366,27.62 -27.621,27.62l-165.724,-0Z"/><path d="M980.208,958.954c-0,15.252 -12.368,27.62 -27.62,27.62l-165.724,-0c-15.253,-0 -27.621,-12.368 -27.621,-27.62c-0,-15.253 12.368,-27.621 27.621,-27.621l138.103,0l0,-138.103c0,-15.253 12.368,-27.621 27.621,-27.621c15.252,-0 27.62,12.368 27.62,27.621l-0,165.724Z"/></g></g><g><text x="248.765px" y="833.107px" style="font-family:'ArialRoundedMTBold', 'Arial Rounded MT Bold', sans-serif;font-size:900px;">X</text></g></svg>