<?xml version="1.0" encoding="UTF-8" standalone="no"?>
<!DOCTYPE svg PUBLIC "-//W3C//DTD SVG 1.1//EN" "http://www.w3.org/Graphics/SVG/1.1/DTD/svg11.dtd">
<svg width="100%" height="100%" viewBox="0 0 1024 1024" version="1.1" xmlns="http://www.w3.org/2000/svg" xmlns:xlink="http://www.w3.org/1999/xlink" xml:space="preserve" xmlns:serif="http://www.serif.com/" style="fill-rule:evenodd;clip-rule:evenodd;stroke-linejoin:round;stroke-miterlimit:2;">
    <g transform="matrix(1.65724,0,0,1.65724,510.657,517.023)">
        <g transform="matrix(1,0,0,1,-400,-400)">
            <path d="M116.667,133.333C116.667,124.129 124.129,116.667 133.333,116.667L233.333,116.667C242.538,116.667 250,124.129 250,133.333C250,142.538 242.538,150 233.333,150L150,150L150,233.333C150,242.538 142.538,250 133.333,250C124.129,250 116.667,242.538 116.667,233.333L116.667,133.333Z"/>
            <path d="M666.667,116.667C675.87,116.667 683.333,124.129 683.333,133.333L683.333,233.333C683.333,242.538 675.87,250 666.667,250C657.463,250 650,242.538 650,233.333L650,150L566.667,150C557.463,150 550,142.538 550,133.333C550,124.129 557.463,116.667 566.667,116.667L666.667,116.667Z"/>
            <path d="M133.333,683.333C124.129,683.333 116.667,675.87 116.667,666.667L116.667,566.667C116.667,557.463 124.129,550 133.333,550C142.538,550 150,557.463 150,566.667L150,650L233.333,650C242.538,650 250,657.463 250,666.667C250,675.87 242.538,683.333 233.333,683.333L133.333,683.333Z"/>
            <path d="M683.333,666.667C683.333,675.87 675.87,683.333 666.667,683.333L566.667,683.333C557.463,683.333 550,675.87 550,666.667C550,657.463 557.463,650 566.667,650L650,650L650,566.667C650,557.463 657.463,550 666.667,550C675.87,550 683.333,557.463 683.333,566.667L683.333,666.667Z"/>
        </g>
    </g>
    <g transform="matrix(0.984967,0,0,0.984967,49.1775,-9.55222)">
        <path d="M390.244,733.129L643.716,733.129C664.218,733.129 679.128,735.458 688.447,740.118C697.766,744.777 703.978,752.077 707.084,762.017C710.191,771.957 711.744,785.159 711.744,801.622C711.744,818.085 710.191,831.287 707.084,841.227C703.978,851.167 698.697,858.001 691.242,861.728C679.439,867.941 663.286,871.047 642.785,871.047L307.307,871.047C263.819,871.047 238.348,859.243 230.893,835.636C227.165,825.696 225.301,809.854 225.301,788.11L225.301,269.983C225.301,255.694 225.767,244.978 226.699,237.833C227.631,230.689 230.582,222.457 235.552,213.138C244.25,196.364 268.479,187.977 308.239,187.977C351.727,187.977 377.509,199.471 385.585,222.457C388.691,233.018 390.244,249.171 390.244,270.915L390.244,733.129Z" style="fill-rule:nonzero;"/>
    </g>
</svg>
