<?xml version="1.0" encoding="UTF-8" standalone="no"?>
<!DOCTYPE svg PUBLIC "-//W3C//DTD SVG 1.1//EN" "http://www.w3.org/Graphics/SVG/1.1/DTD/svg11.dtd">
<svg width="100%" height="100%" viewBox="0 0 1024 1024" version="1.1" xmlns="http://www.w3.org/2000/svg" xmlns:xlink="http://www.w3.org/1999/xlink" xml:space="preserve" xmlns:serif="http://www.serif.com/" style="fill-rule:evenodd;clip-rule:evenodd;stroke-linejoin:round;stroke-miterlimit:2;">
    <g transform="matrix(1.65724,0,0,1.65724,510.657,517.023)">
        <g transform="matrix(1,0,0,1,-400,-400)">
            <path d="M116.667,133.333C116.667,124.129 124.129,116.667 133.333,116.667L233.333,116.667C242.538,116.667 250,124.129 250,133.333C250,142.538 242.538,150 233.333,150L150,150L150,233.333C150,242.538 142.538,250 133.333,250C124.129,250 116.667,242.538 116.667,233.333L116.667,133.333Z"/>
            <path d="M666.667,116.667C675.87,116.667 683.333,124.129 683.333,133.333L683.333,233.333C683.333,242.538 675.87,250 666.667,250C657.463,250 650,242.538 650,233.333L650,150L566.667,150C557.463,150 550,142.538 550,133.333C550,124.129 557.463,116.667 566.667,116.667L666.667,116.667Z"/>
            <path d="M133.333,683.333C124.129,683.333 116.667,675.87 116.667,666.667L116.667,566.667C116.667,557.463 124.129,550 133.333,550C142.538,550 150,557.463 150,566.667L150,650L233.333,650C242.538,650 250,657.463 250,666.667C250,675.87 242.538,683.333 233.333,683.333L133.333,683.333Z"/>
            <path d="M683.333,666.667C683.333,675.87 675.87,683.333 666.667,683.333L566.667,683.333C557.463,683.333 550,675.87 550,666.667C550,657.463 557.463,650 566.667,650L650,650L650,566.667C650,557.463 657.463,550 666.667,550C675.87,550 683.333,557.463 683.333,566.667L683.333,666.667Z"/>
        </g>
    </g>
    <g transform="matrix(0.822178,0,0,0.822178,24.1239,76.6467)">
        <path d="M951.238,214.07C956.208,223.389 959.159,231.776 960.09,239.231C961.022,246.686 961.488,257.558 961.488,271.847L961.488,789.042C961.488,831.908 949.684,857.069 926.077,864.524C914.273,868.251 899.363,870.115 881.346,870.115C863.33,870.115 849.041,868.562 838.48,865.456C827.919,862.35 819.842,858.622 814.251,854.273C808.66,849.924 804.311,843.712 801.205,835.636C798.098,825.074 796.545,808.922 796.545,787.178L796.545,474.997C781.014,494.256 758.338,524.853 728.518,566.788C698.697,608.722 679.749,634.97 671.673,645.532C663.597,656.093 658.005,663.393 654.899,667.431C651.793,671.469 644.182,677.06 632.068,684.205C619.953,691.349 606.907,694.921 592.929,694.921C578.951,694.921 566.215,691.66 554.722,685.137C543.228,678.613 534.997,672.246 530.027,666.033L522.572,655.782C510.147,640.251 485.607,607.169 448.953,556.537C412.299,505.905 392.419,478.725 389.313,474.997L389.313,789.042C389.313,803.33 388.847,814.047 387.915,821.191C386.983,828.336 384.032,836.257 379.062,844.954C369.743,861.728 345.514,870.115 306.375,870.115C268.479,870.115 244.871,861.728 235.552,844.954C230.582,836.257 227.631,828.181 226.699,820.725C225.767,813.27 225.301,802.088 225.301,787.178L225.301,269.983C225.301,255.694 225.767,244.978 226.699,237.833C227.631,230.689 230.582,222.457 235.552,213.138C244.871,196.986 269.1,188.909 308.239,188.909C325.013,188.909 339.457,190.928 351.571,194.967C363.686,199.005 371.607,203.198 375.334,207.547L380.926,213.138L592.463,490.839C698.076,351.057 768.589,258.8 804,214.07C814.562,197.296 839.567,188.909 879.017,188.909C918.466,188.909 942.54,197.296 951.238,214.07Z" style="fill-rule:nonzero;"/>
    </g>
</svg>
