<?xml version="1.0" encoding="iso-8859-1"?>
<!-- Generator: Adobe Illustrator 19.0.0, SVG Export Plug-In . SVG Version: 6.00 Build 0)  -->
<svg version="1.1" id="Layer_1" xmlns="http://www.w3.org/2000/svg" xmlns:xlink="http://www.w3.org/1999/xlink" x="0px" y="0px"
	 viewBox="0 0 392.58 392.58" style="enable-background:new 0 0 392.58 392.58;" xml:space="preserve">
<g>
	<g>
		<path d="M161.413,268.135c-6.012,0-10.925,4.848-10.925,10.925v32.97c0,6.012,4.849,10.925,10.925,10.925
			c6.077,0,10.925-4.848,10.925-10.925v-32.97C172.273,272.984,167.425,268.135,161.413,268.135z"/>
	</g>
</g>
<g>
	<g>
		<path d="M322.318,97.986V10.843c-1.164-11.96-11.895-11.766-15.451-9.891L137.041,80.337H32.249
			c-6.012,0-10.925,4.849-10.925,10.925V222.56c0,6.012,4.849,10.925,10.925,10.925h9.826l30.125,150.368
			c1.034,5.107,5.495,8.727,10.667,8.727h59.992h0.065c6.012,0,10.925-4.848,10.925-10.925c0-1.228-29.608-148.234-29.608-148.234
			h12.735l169.762,79.386c12.865,3.168,15.451-6.206,15.451-9.891v-87.143c27.927-5.172,49.067-29.608,49.067-58.958
			C371.385,127.529,350.245,103.158,322.318,97.986z M129.542,370.729H91.853L64.314,233.42h37.689L129.542,370.729z
			 M130.706,211.634H43.174V102.123h87.531V211.634z M300.532,285.719l-147.976-69.172v-34.392h4.461
			c6.012,0,10.925-4.849,10.925-10.925c0-6.012-4.848-10.925-10.925-10.925h-4.461v-21.786h26.246
			c6.012,0,10.925-4.848,10.925-10.925c0-6.012-4.849-10.925-10.925-10.925h-26.246V97.016l147.976-69.172V285.719z
			 M322.318,193.469v-73.115c15.774,4.719,27.281,19.329,27.281,36.525C349.599,174.139,338.092,188.75,322.318,193.469z"/>
	</g>
</g>
<g>
</g>
<g>
</g>
<g>
</g>
<g>
</g>
<g>
</g>
<g>
</g>
<g>
</g>
<g>
</g>
<g>
</g>
<g>
</g>
<g>
</g>
<g>
</g>
<g>
</g>
<g>
</g>
<g>
</g>
</svg>
